<svg width="686" height="669" viewBox="0 0 686 669" fill="none" xmlns="http://www.w3.org/2000/svg">
<path d="M342.67 0C153.443 0 0 153.416 0 342.67C0 494.073 98.1851 622.519 234.339 667.83C251.464 671.002 257.753 660.397 257.753 651.345C257.753 643.175 257.433 616.179 257.288 587.547C161.954 608.275 141.838 547.116 141.838 547.116C126.251 507.508 103.791 496.978 103.791 496.978C72.7022 475.709 106.135 476.144 106.135 476.144C140.546 478.563 158.665 511.458 158.665 511.458C189.227 563.846 238.827 548.699 258.382 539.946C261.456 517.795 270.338 502.681 280.137 494.124C204.027 485.457 124.015 456.074 124.015 324.774C124.015 287.364 137.401 256.793 159.323 232.797C155.765 224.164 144.037 189.313 162.642 142.112C162.642 142.112 191.417 132.902 256.901 177.238C284.233 169.643 313.548 165.838 342.67 165.709C371.791 165.838 401.128 169.643 428.514 177.238C493.92 132.902 522.654 142.112 522.654 142.112C541.305 189.313 529.572 224.164 526.014 232.797C547.984 256.793 561.279 287.361 561.279 324.774C561.279 456.386 481.116 485.368 404.813 493.85C417.103 504.484 428.054 525.339 428.054 557.307C428.054 603.156 427.657 640.058 427.657 651.345C427.657 660.464 433.824 671.149 451.196 667.785C587.275 622.422 685.337 494.022 685.337 342.67C685.337 153.416 531.915 0 342.67 0Z" fill="#5C6BC0"/>
<path d="M128.342 488.141C127.589 489.843 124.907 490.353 122.469 489.187C119.983 488.069 118.586 485.747 119.392 484.038C120.131 482.285 122.813 481.796 125.294 482.973C127.785 484.089 129.204 486.432 128.342 488.141ZM145.198 503.181C143.564 504.696 140.368 503.992 138.199 501.598C135.958 499.208 135.539 496.016 137.197 494.476C138.882 492.963 141.981 493.67 144.227 496.061C146.469 498.477 146.904 501.651 145.195 503.183M156.762 522.423C154.66 523.882 151.226 522.514 149.105 519.467C147.006 516.422 147.006 512.767 149.151 511.302C151.279 509.838 154.66 511.154 156.81 514.178C158.906 517.277 158.906 520.932 156.759 522.426M176.316 544.711C174.438 546.78 170.439 546.226 167.509 543.399C164.515 540.636 163.679 536.715 165.563 534.643C167.463 532.568 171.487 533.152 174.438 535.955C177.413 538.712 178.318 542.663 176.316 544.711ZM201.589 552.236C200.764 554.918 196.91 556.138 193.03 554.998C189.154 553.824 186.617 550.679 187.399 547.968C188.206 545.267 192.076 543.996 195.986 545.216C199.856 546.385 202.396 549.505 201.589 552.236ZM230.356 555.426C230.453 558.253 227.161 560.596 223.087 560.647C218.988 560.736 215.675 558.449 215.632 555.67C215.632 552.816 218.848 550.494 222.944 550.427C227.018 550.346 230.356 552.617 230.356 555.426ZM258.613 554.343C259.102 557.1 256.269 559.933 252.225 560.685C248.247 561.411 244.565 559.709 244.057 556.976C243.563 554.149 246.449 551.319 250.419 550.585C254.471 549.881 258.097 551.539 258.613 554.343Z" fill="#5C6BC0"/>
</svg>
