<svg width="2500" height="2500" viewBox="0 0 2500 2500" fill="none" xmlns="http://www.w3.org/2000/svg">
<path d="M1965.89 111.178H215.781C98.3414 111.178 3.02795 197.195 3.02795 301.481V2027.92C3.02795 2132.96 99.1924 2218.22 215.781 2218.22H1368.9C1356.14 1705.16 1551.87 709.492 1966.31 109.655L1965.89 111.178Z" fill="#0F80CC"/>
<path d="M1902.06 167.127H215.781C175.753 167.227 137.397 181.495 109.093 206.812C80.7893 232.13 64.8386 266.438 64.7263 302.242V1902.7C446.831 1771.39 1019.99 1658.35 1416.56 1663.67C1538.82 1155.19 1700.77 655.084 1902.06 167.127Z" fill="url(#paint0_linear_8_3)"/>
<path d="M2374.38 54.848C2254.38 -40.3038 2109.28 -2.24306 1965.89 111.178L1902.06 166.747C1656.97 398.917 1434.01 829.764 1359.12 1158.99C1385.8 1211.13 1406.88 1265.42 1422.09 1321.13L1431.45 1359.19L1440.81 1398.01C1440.81 1398.01 1438.69 1390.4 1429.75 1367.56L1423.79 1352.34C1422.6 1349.52 1421.32 1346.73 1419.96 1343.96C1395.56 1298.32 1369.02 1253.63 1340.39 1209.99C1324.91 1250.46 1310.3 1291.19 1296.57 1332.17C1352.73 1424.27 1386.77 1581.84 1386.77 1581.84C1386.77 1581.84 1383.8 1571.57 1369.75 1536.17C1356.99 1504.58 1294.87 1406.76 1280.4 1383.93C1254.87 1467.66 1245.08 1523.99 1254.02 1537.69C1271.04 1564.34 1288.06 1613.81 1302.95 1661.01C1325.93 1744.71 1344.67 1829.29 1359.12 1914.49L1361.24 1938.09C1356.83 2033.27 1358.97 2128.6 1367.63 2223.55C1378.69 2342.68 1399.54 2445.06 1425.92 2499.87L1443.79 2491.11C1405.5 2383.02 1389.33 2241.82 1396.14 2078.54C1406.77 1829.24 1470.6 1528.56 1589.32 1215.32C1790.58 738.418 2068.01 358.572 2322.46 177.403C2090.56 364.662 1776.96 970.589 1683.35 1194.77C1578.25 1445.97 1503.79 1681.94 1458.69 1907.64C1536.13 1696.03 1786.33 1604.68 1786.33 1604.68C1786.33 1604.68 1909.72 1469.18 2052.69 1275.45L1778.24 1340.92L1689.74 1375.94C1689.74 1375.94 1915.25 1253 2109.71 1197.05C2376.5 821.391 2667.12 287.399 2374.38 54.4674" fill="#003B57"/>
<defs>
<linearGradient id="paint0_linear_8_3" x1="1124.66" y1="202.523" x2="1124.66" y2="1806.4" gradientUnits="userSpaceOnUse">
<stop stop-color="#97D9F6"/>
<stop offset="0.92024" stop-color="#0F80CC"/>
<stop offset="1" stop-color="#0F80CC"/>
</linearGradient>
</defs>
</svg>
